<mxfile host="app.diagrams.net" modified="2022-03-14T23:27:28.408Z" agent="5.0 (Windows NT 10.0; Win64; x64) AppleWebKit/537.36 (KHTML, like Gecko) Chrome/99.0.4844.51 Safari/537.36" etag="2ZpHdc62LVTovbhyzIVC" version="16.2.3" type="github">
  <diagram id="dr_JlP4X41VMEY7gWm55" name="Page-1">
    <mxGraphModel dx="981" dy="526" grid="1" gridSize="10" guides="1" tooltips="1" connect="1" arrows="1" fold="1" page="1" pageScale="1" pageWidth="827" pageHeight="1169" math="0" shadow="0">
      <root>
        <mxCell id="0" />
        <mxCell id="1" parent="0" />
        <mxCell id="15Je4VVhpKJo6xtH1zC7-53" style="edgeStyle=elbowEdgeStyle;rounded=0;orthogonalLoop=1;jettySize=auto;html=1;exitX=1;exitY=0.5;exitDx=0;exitDy=0;entryX=0;entryY=0.5;entryDx=0;entryDy=0;startArrow=classic;startFill=1;strokeColor=default;" edge="1" parent="1" source="15Je4VVhpKJo6xtH1zC7-48" target="15Je4VVhpKJo6xtH1zC7-17">
          <mxGeometry relative="1" as="geometry" />
        </mxCell>
        <mxCell id="15Je4VVhpKJo6xtH1zC7-57" value="" style="edgeStyle=elbowEdgeStyle;rounded=0;orthogonalLoop=1;jettySize=auto;html=1;startArrow=none;startFill=0;strokeColor=default;entryX=0;entryY=0.5;entryDx=0;entryDy=0;" edge="1" parent="1" source="15Je4VVhpKJo6xtH1zC7-48" target="15Je4VVhpKJo6xtH1zC7-34">
          <mxGeometry relative="1" as="geometry">
            <mxPoint x="240.1428571428571" y="270" as="targetPoint" />
            <Array as="points">
              <mxPoint x="240" y="270" />
            </Array>
          </mxGeometry>
        </mxCell>
        <mxCell id="15Je4VVhpKJo6xtH1zC7-48" value="" style="rounded=1;whiteSpace=wrap;html=1;shadow=0;glass=0;sketch=0;" vertex="1" parent="1">
          <mxGeometry x="205.01" y="305.38" width="70" height="75" as="geometry" />
        </mxCell>
        <mxCell id="15Je4VVhpKJo6xtH1zC7-22" value="" style="rounded=1;whiteSpace=wrap;html=1;shadow=0;glass=0;sketch=0;" vertex="1" parent="1">
          <mxGeometry x="320" y="305" width="300" height="75" as="geometry" />
        </mxCell>
        <mxCell id="15Je4VVhpKJo6xtH1zC7-7" style="rounded=0;orthogonalLoop=1;jettySize=auto;html=1;strokeColor=default;startArrow=classic;startFill=1;edgeStyle=orthogonalEdgeStyle;" edge="1" parent="1">
          <mxGeometry relative="1" as="geometry">
            <mxPoint x="500" y="335" as="sourcePoint" />
            <mxPoint x="540" y="335" as="targetPoint" />
          </mxGeometry>
        </mxCell>
        <mxCell id="15Je4VVhpKJo6xtH1zC7-9" style="edgeStyle=orthogonalEdgeStyle;rounded=0;orthogonalLoop=1;jettySize=auto;html=1;startArrow=classic;startFill=1;strokeColor=default;" edge="1" parent="1" target="15Je4VVhpKJo6xtH1zC7-14">
          <mxGeometry relative="1" as="geometry">
            <mxPoint x="400" y="335" as="sourcePoint" />
            <mxPoint x="440" y="335" as="targetPoint" />
          </mxGeometry>
        </mxCell>
        <mxCell id="15Je4VVhpKJo6xtH1zC7-10" value="Blockchain Network" style="text;html=1;strokeColor=none;fillColor=none;align=center;verticalAlign=middle;whiteSpace=wrap;rounded=0;" vertex="1" parent="1">
          <mxGeometry x="500" y="360" width="120" height="20" as="geometry" />
        </mxCell>
        <mxCell id="15Je4VVhpKJo6xtH1zC7-13" value="" style="edgeStyle=orthogonalEdgeStyle;rounded=0;orthogonalLoop=1;jettySize=auto;html=1;startArrow=classic;startFill=1;strokeColor=default;" edge="1" parent="1" source="15Je4VVhpKJo6xtH1zC7-12" target="15Je4VVhpKJo6xtH1zC7-14">
          <mxGeometry relative="1" as="geometry">
            <mxPoint x="500" y="335" as="targetPoint" />
          </mxGeometry>
        </mxCell>
        <mxCell id="15Je4VVhpKJo6xtH1zC7-12" value="Roulette" style="shape=note;whiteSpace=wrap;html=1;backgroundOutline=1;darkOpacity=0.05;rounded=0;shadow=0;glass=0;sketch=0;size=8;" vertex="1" parent="1">
          <mxGeometry x="540" y="320" width="60" height="30" as="geometry" />
        </mxCell>
        <mxCell id="15Je4VVhpKJo6xtH1zC7-14" value="Bank" style="shape=note;whiteSpace=wrap;html=1;backgroundOutline=1;darkOpacity=0.05;rounded=0;shadow=0;glass=0;sketch=0;size=8;" vertex="1" parent="1">
          <mxGeometry x="440" y="320" width="60" height="30" as="geometry" />
        </mxCell>
        <mxCell id="15Je4VVhpKJo6xtH1zC7-16" value="" style="edgeStyle=orthogonalEdgeStyle;rounded=0;orthogonalLoop=1;jettySize=auto;html=1;startArrow=classic;startFill=1;strokeColor=default;" edge="1" parent="1" source="15Je4VVhpKJo6xtH1zC7-15" target="15Je4VVhpKJo6xtH1zC7-14">
          <mxGeometry relative="1" as="geometry" />
        </mxCell>
        <mxCell id="15Je4VVhpKJo6xtH1zC7-15" value="Dice" style="shape=note;whiteSpace=wrap;html=1;backgroundOutline=1;darkOpacity=0.05;rounded=0;shadow=0;glass=0;sketch=0;size=8;" vertex="1" parent="1">
          <mxGeometry x="340" y="320" width="60" height="30" as="geometry" />
        </mxCell>
        <mxCell id="15Je4VVhpKJo6xtH1zC7-18" style="edgeStyle=orthogonalEdgeStyle;rounded=0;orthogonalLoop=1;jettySize=auto;html=1;exitX=0.5;exitY=1;exitDx=0;exitDy=0;startArrow=classic;startFill=1;strokeColor=default;" edge="1" parent="1" source="15Je4VVhpKJo6xtH1zC7-17" target="15Je4VVhpKJo6xtH1zC7-22">
          <mxGeometry relative="1" as="geometry">
            <mxPoint x="469.9999999999998" y="300" as="targetPoint" />
          </mxGeometry>
        </mxCell>
        <mxCell id="15Je4VVhpKJo6xtH1zC7-17" value="RPC API Node" style="rounded=1;whiteSpace=wrap;html=1;shadow=0;glass=0;sketch=0;" vertex="1" parent="1">
          <mxGeometry x="320" y="250" width="300" height="30" as="geometry" />
        </mxCell>
        <mxCell id="15Je4VVhpKJo6xtH1zC7-42" value="" style="edgeStyle=elbowEdgeStyle;rounded=0;orthogonalLoop=1;jettySize=auto;html=1;startArrow=classic;startFill=1;strokeColor=default;" edge="1" parent="1" source="15Je4VVhpKJo6xtH1zC7-26" target="15Je4VVhpKJo6xtH1zC7-34">
          <mxGeometry relative="1" as="geometry" />
        </mxCell>
        <mxCell id="15Je4VVhpKJo6xtH1zC7-26" value="" style="shape=actor;whiteSpace=wrap;html=1;rounded=0;shadow=0;glass=0;sketch=0;" vertex="1" parent="1">
          <mxGeometry x="330" y="120" width="30" height="40" as="geometry" />
        </mxCell>
        <mxCell id="15Je4VVhpKJo6xtH1zC7-41" value="" style="edgeStyle=elbowEdgeStyle;rounded=0;orthogonalLoop=1;jettySize=auto;html=1;startArrow=classic;startFill=1;strokeColor=default;" edge="1" parent="1" source="15Je4VVhpKJo6xtH1zC7-27" target="15Je4VVhpKJo6xtH1zC7-34">
          <mxGeometry relative="1" as="geometry" />
        </mxCell>
        <mxCell id="15Je4VVhpKJo6xtH1zC7-27" value="" style="shape=actor;whiteSpace=wrap;html=1;rounded=0;shadow=0;glass=0;sketch=0;" vertex="1" parent="1">
          <mxGeometry x="380" y="120" width="30" height="40" as="geometry" />
        </mxCell>
        <mxCell id="15Je4VVhpKJo6xtH1zC7-40" value="" style="edgeStyle=elbowEdgeStyle;rounded=0;orthogonalLoop=1;jettySize=auto;html=1;startArrow=classic;startFill=1;strokeColor=default;" edge="1" parent="1" source="15Je4VVhpKJo6xtH1zC7-28" target="15Je4VVhpKJo6xtH1zC7-34">
          <mxGeometry relative="1" as="geometry" />
        </mxCell>
        <mxCell id="15Je4VVhpKJo6xtH1zC7-28" value="" style="shape=actor;whiteSpace=wrap;html=1;rounded=0;shadow=0;glass=0;sketch=0;" vertex="1" parent="1">
          <mxGeometry x="430" y="120" width="30" height="40" as="geometry" />
        </mxCell>
        <mxCell id="15Je4VVhpKJo6xtH1zC7-38" value="" style="edgeStyle=elbowEdgeStyle;rounded=0;orthogonalLoop=1;jettySize=auto;html=1;startArrow=classic;startFill=1;strokeColor=default;" edge="1" parent="1" source="15Je4VVhpKJo6xtH1zC7-29" target="15Je4VVhpKJo6xtH1zC7-34">
          <mxGeometry relative="1" as="geometry" />
        </mxCell>
        <mxCell id="15Je4VVhpKJo6xtH1zC7-29" value="" style="shape=actor;whiteSpace=wrap;html=1;rounded=0;shadow=0;glass=0;sketch=0;" vertex="1" parent="1">
          <mxGeometry x="580" y="120" width="30" height="40" as="geometry" />
        </mxCell>
        <mxCell id="15Je4VVhpKJo6xtH1zC7-39" value="" style="edgeStyle=elbowEdgeStyle;rounded=0;orthogonalLoop=1;jettySize=auto;html=1;startArrow=classic;startFill=1;strokeColor=default;" edge="1" parent="1" source="15Je4VVhpKJo6xtH1zC7-30" target="15Je4VVhpKJo6xtH1zC7-34">
          <mxGeometry relative="1" as="geometry" />
        </mxCell>
        <mxCell id="15Je4VVhpKJo6xtH1zC7-30" value="" style="shape=actor;whiteSpace=wrap;html=1;rounded=0;shadow=0;glass=0;sketch=0;" vertex="1" parent="1">
          <mxGeometry x="480" y="120" width="30" height="40" as="geometry" />
        </mxCell>
        <mxCell id="15Je4VVhpKJo6xtH1zC7-37" value="" style="edgeStyle=elbowEdgeStyle;rounded=0;orthogonalLoop=1;jettySize=auto;html=1;startArrow=classic;startFill=1;strokeColor=default;" edge="1" parent="1" source="15Je4VVhpKJo6xtH1zC7-31" target="15Je4VVhpKJo6xtH1zC7-34">
          <mxGeometry relative="1" as="geometry" />
        </mxCell>
        <mxCell id="15Je4VVhpKJo6xtH1zC7-31" value="" style="shape=actor;whiteSpace=wrap;html=1;rounded=0;shadow=0;glass=0;sketch=0;" vertex="1" parent="1">
          <mxGeometry x="530" y="120" width="30" height="40" as="geometry" />
        </mxCell>
        <mxCell id="15Je4VVhpKJo6xtH1zC7-35" value="" style="edgeStyle=orthogonalEdgeStyle;rounded=0;orthogonalLoop=1;jettySize=auto;html=1;startArrow=classic;startFill=1;strokeColor=default;" edge="1" parent="1" source="15Je4VVhpKJo6xtH1zC7-34" target="15Je4VVhpKJo6xtH1zC7-17">
          <mxGeometry relative="1" as="geometry" />
        </mxCell>
        <mxCell id="15Je4VVhpKJo6xtH1zC7-34" value="Web App" style="rounded=1;whiteSpace=wrap;html=1;shadow=0;glass=0;sketch=0;" vertex="1" parent="1">
          <mxGeometry x="320" y="190" width="300" height="30" as="geometry" />
        </mxCell>
        <mxCell id="15Je4VVhpKJo6xtH1zC7-47" value="" style="shape=actor;whiteSpace=wrap;html=1;rounded=0;shadow=0;glass=0;sketch=0;" vertex="1" parent="1">
          <mxGeometry x="225" y="315" width="30" height="40" as="geometry" />
        </mxCell>
        <mxCell id="15Je4VVhpKJo6xtH1zC7-50" value="" style="shape=image;html=1;verticalLabelPosition=bottom;verticalAlign=top;imageAspect=1;aspect=fixed;image=img/clipart/Gear_128x128.png;rounded=0;shadow=0;glass=0;sketch=0;" vertex="1" parent="1">
          <mxGeometry x="233.94" y="335.77" width="12.13" height="14.23" as="geometry" />
        </mxCell>
        <mxCell id="15Je4VVhpKJo6xtH1zC7-52" value="House" style="text;html=1;strokeColor=none;fillColor=none;align=center;verticalAlign=middle;whiteSpace=wrap;rounded=0;shadow=0;glass=0;sketch=0;" vertex="1" parent="1">
          <mxGeometry x="230.01" y="360" width="45" height="20" as="geometry" />
        </mxCell>
      </root>
    </mxGraphModel>
  </diagram>
</mxfile>
